[h264 @ 0x55c7ba875a40] Reinit context to 1280x720, pix_fmt: yuv420p
Input #0, mov,mp4,m4a,3gp,3g2,mj2, from '/var/www/html/project/media/video/original/cesenatico.mp4':
  Metadata:
    major_brand     : mp42
    minor_version   : 1
    compatible_brands: isommp41mp42
    creation_time   : 2024-09-19T05:27:55.000000Z
  Duration: 00:00:43.84, start: 0.000000, bitrate: 12029 kb/s
    Stream #0:0(eng): Audio: aac (LC) (mp4a / 0x6134706D), 48000 Hz, stereo, fltp, 125 kb/s (default)
    Metadata:
      creation_time   : 2024-09-19T05:27:55.000000Z
      handler_name    : Core Media Audio
    Stream #0:1(und): Video: h264 (High), 1 reference frame (avc1 / 0x31637661), yuv420p(tv, bt709, progressive, left), 1280x720, 11886 kb/s, SAR 1:1 DAR 16:9, 25 fps, 25 tbr, 25k tbn, 50k tbc (default)
    Metadata:
      creation_time   : 2024-09-19T05:27:55.000000Z
      handler_name    : Core Media Video
Input #1, png_pipe, from '/var/www/html/project/static/images/templates/logo.png':
  Duration: N/A, bitrate: N/A
    Stream #1:0: Video: png, 1 reference frame, rgba(pc), 1920x1080 [SAR 2835:2835 DAR 16:9], 25 tbr, 25 tbn, 25 tbc
[h264 @ 0x55c7ba8cd7c0] Reinit context to 1280x720, pix_fmt: yuv420p
Input #2, mov,mp4,m4a,3gp,3g2,mj2, from '/var/www/html/project/static/images/templates/Codino.mp4':
  Metadata:
    major_brand     : mp42
    minor_version   : 1
    compatible_brands: isommp41mp42
    creation_time   : 2021-07-11T07:02:58.000000Z
  Duration: 00:00:02.00, start: 0.000000, bitrate: 1007 kb/s
    Stream #2:0(ita): Audio: aac (LC) (mp4a / 0x6134706D), 44100 Hz, stereo, fltp, 102 kb/s (default)
    Metadata:
      creation_time   : 2021-07-11T07:02:58.000000Z
      handler_name    : Core Media Audio
    Stream #2:1(und): Video: h264 (High), 1 reference frame (avc1 / 0x31637661), yuv420p(tv, bt709, progressive, left), 1280x720 [SAR 1:1 DAR 16:9], 813 kb/s, 25 fps, 25 tbr, 25k tbn, 50k tbc (default)
    Metadata:
      creation_time   : 2021-07-11T07:02:58.000000Z
      handler_name    : Core Media Video
[Parsed_scale_0 @ 0x55c7ba8e5000] w:1280 h:720 flags:'bilinear' interl:0
[Parsed_scale_2 @ 0x55c7ba90c980] w:1280 h:720 flags:'bilinear' interl:0
[Parsed_scale_4 @ 0x55c7ba909a00] w:1280 h:720 flags:'bilinear' interl:0
Stream mapping:
  Stream #0:0 (aac) -> concat:in0:a0
  Stream #0:1 (h264) -> scale
  Stream #1:0 (png) -> scale
  Stream #2:0 (aac) -> concat:in1:a0
  Stream #2:1 (h264) -> scale
  concat:out:v0 -> Stream #0:0 (libx264)
  concat:out:a0 -> Stream #0:1 (aac)
Press [q] to stop, [?] for help
[h264 @ 0x55c7ba9b5e80] Reinit context to 1280x720, pix_fmt: yuv420p
[h264 @ 0x55c7bad2bd40] Reinit context to 1280x720, pix_fmt: yuv420p
[Parsed_scale_0 @ 0x55c7bbc4d5c0] w:1280 h:720 flags:'bilinear' interl:0
[Parsed_scale_2 @ 0x55c7bbc4d740] w:1280 h:720 flags:'bilinear' interl:0
[Parsed_scale_4 @ 0x55c7bbc56fc0] w:1280 h:720 flags:'bilinear' interl:0
[graph 0 input from stream 0:1 @ 0x55c7bbc5b700] w:1280 h:720 pixfmt:yuv420p tb:1/25000 fr:25/1 sar:1/1 sws_param:flags=2
[graph 0 input from stream 1:0 @ 0x55c7bbc5c780] w:1920 h:1080 pixfmt:rgba tb:1/25 fr:25/1 sar:2835/2835 sws_param:flags=2
[graph 0 input from stream 2:1 @ 0x55c7bbc5d800] w:1280 h:720 pixfmt:yuv420p tb:1/25000 fr:25/1 sar:1/1 sws_param:flags=2
[graph_0_in_0_0 @ 0x55c7bbc5e7c0] tb:1/48000 samplefmt:fltp samplerate:48000 chlayout:0x3
[graph_0_in_2_0 @ 0x55c7bbc5f900] tb:1/44100 samplefmt:fltp samplerate:44100 chlayout:0x3
[Parsed_concat_7 @ 0x55c7bbc59780] auto-inserting filter 'auto_resampler_0' between the filter 'graph_0_in_2_0' and the filter 'Parsed_concat_7'
[Parsed_scale_0 @ 0x55c7bbc4d5c0] w:1280 h:720 fmt:yuv420p sar:1/1 -> w:1280 h:720 fmt:yuv420p sar:1/1 flags:0x2
[Parsed_setsar_1 @ 0x55c7bbc55780] w:1280 h:720 sar:1/1 dar:16/9 -> sar:1/1 dar:16/9
[Parsed_scale_2 @ 0x55c7bbc4d740] w:1920 h:1080 fmt:rgba sar:2835/2835 -> w:1280 h:720 fmt:yuva420p sar:1/1 flags:0x2
[Parsed_setsar_3 @ 0x55c7bbc563c0] w:1280 h:720 sar:1/1 dar:16/9 -> sar:1/1 dar:16/9
[Parsed_overlay_6 @ 0x55c7bbc58640] main w:1280 h:720 fmt:yuv420p overlay w:1280 h:720 fmt:yuva420p
[Parsed_overlay_6 @ 0x55c7bbc58640] [framesync @ 0x55c7bbc58768] Selected 1/25000 time base
[Parsed_overlay_6 @ 0x55c7bbc58640] [framesync @ 0x55c7bbc58768] Sync level 2
[Parsed_scale_4 @ 0x55c7bbc56fc0] w:1280 h:720 fmt:yuv420p sar:1/1 -> w:1280 h:720 fmt:yuv420p sar:1/1 flags:0x2
[Parsed_setsar_5 @ 0x55c7bbc57a80] w:1280 h:720 sar:1/1 dar:16/9 -> sar:1/1 dar:16/9
[auto_resampler_0 @ 0x55c7bbc67080] ch:2 chl:stereo fmt:fltp r:44100Hz -> ch:2 chl:stereo fmt:fltp r:48000Hz
[libx264 @ 0x55c7ba90a440] using SAR=1/1
[libx264 @ 0x55c7ba90a440] using cpu capabilities: MMX2 SSE2Fast SSSE3 SSE4.2 AVX FMA3 BMI2 AVX2
[libx264 @ 0x55c7ba90a440] profile High, level 3.1
[libx264 @ 0x55c7ba90a440] 264 - core 155 r2917 0a84d98 - H.264/MPEG-4 AVC codec - Copyleft 2003-2018 - http://www.videolan.org/x264.html - options: cabac=1 ref=1 deblock=1:0:0 analyse=0x3:0x113 me=hex subme=2 psy=1 psy_rd=1.00:0.00 mixed_ref=0 me_range=16 chroma_me=1 trellis=0 8x8dct=1 cqm=0 deadzone=21,11 fast_pskip=1 chroma_qp_offset=0 threads=22 lookahead_threads=5 sliced_threads=0 nr=0 decimate=1 interlaced=0 bluray_compat=0 constrained_intra=0 bframes=3 b_pyramid=2 b_adapt=1 b_bias=0 direct=1 weightb=1 open_gop=0 weightp=1 keyint=250 keyint_min=25 scenecut=40 intra_refresh=0 rc_lookahead=10 rc=crf mbtree=1 crf=18.0 qcomp=0.60 qpmin=0 qpmax=69 qpstep=4 ip_ratio=1.40 aq=1:1.00
Output #0, mp4, to '/var/www/html/project/media/video/watermarks/cesenatico.mp4':
  Metadata:
    major_brand     : mp42
    minor_version   : 1
    compatible_brands: isommp41mp42
    encoder         : Lavf58.29.100
    Stream #0:0: Video: h264 (libx264), 1 reference frame (avc1 / 0x31637661), yuv420p(progressive), 1280x720 [SAR 1:1 DAR 16:9], q=-1--1, 25 fps, 12800 tbn, 25 tbc (default)
    Metadata:
      encoder         : Lavc58.54.100 libx264
    Side data:
      cpb: bitrate max/min/avg: 0/0/0 buffer size: 0 vbv_delay: -1
    Stream #0:1: Audio: aac (LC) (mp4a / 0x6134706D), 48000 Hz, stereo, fltp, delay 1024, 128 kb/s (default)
    Metadata:
      encoder         : Lavc58.54.100 aac
[Parsed_concat_7 @ 0x55c7bbc59780] EOF on in0:a0, 1 streams left in segment.
[Parsed_overlay_6 @ 0x55c7bbc58640] [framesync @ 0x55c7bbc58768] Sync level 0
[Parsed_concat_7 @ 0x55c7bbc59780] EOF on in0:v0, 0 streams left in segment.
[Parsed_concat_7 @ 0x55c7bbc59780] Segment finished at pts=43860000
[Parsed_concat_7 @ 0x55c7bbc59780] EOF on in1:v0, 1 streams left in segment.
[Parsed_concat_7 @ 0x55c7bbc59780] EOF on in1:a0, 0 streams left in segment.
[Parsed_concat_7 @ 0x55c7bbc59780] Segment finished at pts=45878687
No more output streams to write to, finishing.
frame= 1146 fps= 78 q=-1.0 Lsize=   19465kB time=00:00:45.88 bitrate=3475.0kbits/s speed=3.11x    
[AVIOContext @ 0x55c7ba872440] Statistics: 0 seeks, 30 writeouts
video:18720kB audio:712kB subtitle:0kB other streams:0kB global headers:0kB muxing overhead: 0.175382%
Input file #0 (/var/www/html/project/media/video/original/cesenatico.mp4):
  Input stream #0:0 (audio): 2058 packets read (690827 bytes); 2056 frames decoded (2105280 samples); 
  Input stream #0:1 (video): 1096 packets read (65139394 bytes); 1096 frames decoded; 
  Total: 3154 packets (65830221 bytes) demuxed
Input file #1 (/var/www/html/project/static/images/templates/logo.png):
  Input stream #1:0 (video): 1 packets read (111578 bytes); 1 frames decoded; 
  Total: 1 packets (111578 bytes) demuxed
Input file #2 (/var/www/html/project/static/images/templates/Codino.mp4):
  Input stream #2:0 (audio): 89 packets read (26579 bytes); 87 frames decoded (89024 samples); 
  Input stream #2:1 (video): 50 packets read (203365 bytes); 50 frames decoded; 
  Total: 139 packets (229944 bytes) demuxed
Output file #0 (/var/www/html/project/media/video/watermarks/cesenatico.mp4):
  Output stream #0:0 (video): 1146 frames encoded; 1146 packets muxed (19169076 bytes); 
  Output stream #0:1 (audio): 2151 frames encoded (2202177 samples); 2152 packets muxed (728594 bytes); 
  Total: 3298 packets (19897670 bytes) muxed
[AVIOContext @ 0x55c7ba90d040] Statistics: 2 seeks, 79 writeouts
[libx264 @ 0x55c7ba90a440] frame I:7     Avg QP:14.02  size: 48045
[libx264 @ 0x55c7ba90a440] frame P:496   Avg QP:16.44  size: 22131
[libx264 @ 0x55c7ba90a440] frame B:643   Avg QP:18.22  size: 12216
[libx264 @ 0x55c7ba90a440] consecutive B-frames: 20.2%  9.8% 16.0% 54.1%
[libx264 @ 0x55c7ba90a440] mb I  I16..4: 35.2% 24.9% 39.9%
[libx264 @ 0x55c7ba90a440] mb P  I16..4: 18.8% 21.3% 10.2%  P16..4: 13.1%  6.8%  3.8%  0.0%  0.0%    skip:26.1%
[libx264 @ 0x55c7ba90a440] mb B  I16..4:  5.8%  8.1%  2.4%  B16..8: 22.5%  9.3%  1.6%  direct: 7.9%  skip:42.3%  L0:51.9% L1:36.4% BI:11.6%
[libx264 @ 0x55c7ba90a440] 8x8 transform intra:44.2% inter:24.5%
[libx264 @ 0x55c7ba90a440] coded y,uvDC,uvAC intra: 47.2% 66.3% 23.6% inter: 10.9% 21.3% 2.4%
[libx264 @ 0x55c7ba90a440] i16 v,h,dc,p: 52% 20% 18% 11%
[libx264 @ 0x55c7ba90a440] i8 v,h,dc,ddl,ddr,vr,hd,vl,hu: 32% 31% 15%  3%  4%  4%  4%  4%  4%
[libx264 @ 0x55c7ba90a440] i4 v,h,dc,ddl,ddr,vr,hd,vl,hu: 28% 25% 11%  5%  9%  8%  8%  5%  4%
[libx264 @ 0x55c7ba90a440] i8c dc,h,v,p: 45% 25% 20% 10%
[libx264 @ 0x55c7ba90a440] Weighted P-Frames: Y:2.0% UV:0.8%
[libx264 @ 0x55c7ba90a440] kb/s:3342.35
[aac @ 0x55c7ba8fa7c0] Qavg: 1206.557
[AVIOContext @ 0x55c7ba87b3c0] Statistics: 102025981 bytes read, 2185 seeks
[AVIOContext @ 0x55c7ba8de500] Statistics: 111578 bytes read, 0 seeks
[AVIOContext @ 0x55c7ba878200] Statistics: 1530915 bytes read, 42 seeks
